<svg width="32" height="32" viewBox="0 0 32 32" fill="none" xmlns="http://www.w3.org/2000/svg">
<path d="M16 0C7.168 0 0 7.168 0 16C0 24.832 7.168 32 16 32C24.8 32 32 24.832 32 16C32 7.168 24.8 0 16 0ZM26.56 7.36C28.48 9.696 29.6 12.64 29.664 15.872C29.216 15.776 24.704 14.88 20.16 15.424C20.064 15.2 19.968 14.944 19.872 14.72C19.584 14.048 19.296 13.376 18.976 12.736C23.968 10.72 26.272 7.744 26.56 7.36ZM16 2.368C19.456 2.368 22.656 3.68 25.056 5.792C24.8 6.144 22.752 8.896 17.888 10.72C15.648 6.592 13.152 3.232 12.8 2.72C13.824 2.496 14.88 2.368 16 2.368ZM10.176 3.648C10.528 4.128 12.96 7.52 15.232 11.552C8.832 13.248 3.2 13.216 2.592 13.216C3.52 8.96 6.368 5.44 10.176 3.648ZM2.336 16.032C2.336 15.904 2.336 15.744 2.336 15.616C2.912 15.648 9.568 15.712 16.384 13.664C16.768 14.432 17.152 15.2 17.504 16C17.344 16.064 17.152 16.096 16.96 16.16C9.92 18.432 6.176 24.64 5.856 25.152C3.648 22.72 2.336 19.52 2.336 16.032ZM16 29.664C12.832 29.664 9.92 28.576 7.616 26.784C7.872 26.272 10.624 20.928 18.336 18.24C18.368 18.208 18.4 18.208 18.432 18.208C20.352 23.2 21.152 27.36 21.344 28.576C19.712 29.28 17.888 29.664 16 29.664ZM23.616 27.328C23.488 26.496 22.752 22.496 20.96 17.6C25.248 16.928 28.992 18.048 29.472 18.176C28.864 21.984 26.688 25.28 23.616 27.328Z" fill="#EA4C89"/>
</svg>
