<svg width="30" height="24" viewBox="0 0 30 24" fill="none" xmlns="http://www.w3.org/2000/svg">
<path d="M30 5.3025V19.5C30.0001 20.6478 29.5615 21.7523 28.7741 22.5874C27.9866 23.4225 26.9098 23.9252 25.764 23.9925L25.5 24H4.5C3.35218 24.0001 2.24773 23.5615 1.41261 22.7741C0.57749 21.9866 0.0748387 20.9098 0.00750017 19.764L0 19.5V5.3025L14.1675 14.748L14.3415 14.847C14.5466 14.9472 14.7718 14.9993 15 14.9993C15.2282 14.9993 15.4534 14.9472 15.6585 14.847L15.8325 14.748L30 5.3025ZM25.5 0C27.12 0 28.5405 0.855 29.3325 2.1405L15 11.6955L0.6675 2.1405C1.04359 1.52965 1.56032 1.0176 2.17456 0.647074C2.7888 0.276546 3.48275 0.0582843 4.1985 0.0105L4.5 0H25.5Z" fill="#B2282A"/>
</svg>
